<svg width="46" height="34" viewBox="0 0 46 34" fill="none" xmlns="http://www.w3.org/2000/svg">
<path d="M17.7688 24.2741C17.7688 29.1808 13.7911 33.1585 8.8844 33.1585C3.97768 33.1585 0 29.1808 0 24.2741C0 21.6871 1.1057 19.3584 2.87031 17.7347C4.4526 16.2787 6.56468 15.3897 8.8844 15.3897C13.7911 15.3897 17.7688 19.3674 17.7688 24.2741Z" fill="#96D68C"/>
<path d="M43.4098 24.2741C43.4098 29.1808 39.4321 33.1585 34.5254 33.1585C29.6187 33.1585 25.641 29.1808 25.641 24.2741C25.641 23.6473 25.7059 23.0357 25.8294 22.4456C26.6724 18.4161 30.2455 15.3897 34.5254 15.3897C39.4321 15.3897 43.4098 19.3674 43.4098 24.2741Z" fill="#96D68C"/>
<path d="M33.4324 13.653C33.4324 18.1245 30.1289 21.8245 25.8294 22.4456C25.411 22.5061 24.9831 22.5374 24.548 22.5374C20.2356 22.5374 16.6408 19.465 15.8332 15.3897C15.7219 14.828 15.6636 14.2473 15.6636 13.653C15.6636 12.8724 15.7642 12.1153 15.9533 11.394C16.9527 7.58132 20.4218 4.76855 24.548 4.76855C29.4547 4.76855 33.4324 8.74624 33.4324 13.653Z" fill="#96D68C"/>
<path d="M17.7688 24.2741C17.7688 29.1808 13.7911 33.1585 8.8844 33.1585H34.5254C29.6187 33.1585 25.641 29.1808 25.641 24.2741C25.641 23.6473 25.7059 23.0357 25.8294 22.4456C25.411 22.5061 24.9831 22.5374 24.548 22.5374C20.2356 22.5374 16.6408 19.465 15.8332 15.3897H10.0379H8.8844C13.7911 15.3897 17.7688 19.3674 17.7688 24.2741Z" fill="#96D68C"/>
<path d="M15.8332 15.3897C15.7219 14.828 15.6636 14.2473 15.6636 13.653C15.6636 12.8724 15.7642 12.1153 15.9533 11.394C15.2109 12.7259 12.9884 15.3897 10.0379 15.3897H15.8332Z" fill="#96D68C"/>
<circle cx="34.6672" cy="10.9485" r="8.01481" transform="rotate(-30 34.6672 10.9485)" fill="#FFC145"/>
<path d="M36.5868 14.5874C36.1364 14.8474 35.6995 15.0268 35.276 15.1254C34.8489 15.2176 34.3895 15.2169 33.8979 15.1232C33.7734 15.1008 33.6626 15.0575 33.5656 14.9934C33.4685 14.9293 33.394 14.8523 33.342 14.7622C33.2566 14.6142 33.2337 14.4558 33.2735 14.287C33.316 14.108 33.4177 13.9721 33.5786 13.8792C33.7008 13.8086 33.8325 13.7841 33.9736 13.8056C34.3332 13.8639 34.6618 13.8758 34.9593 13.8413C35.2632 13.8031 35.5922 13.6818 35.946 13.4775C36.1841 13.3401 36.3824 13.1784 36.541 12.9924C36.6959 12.8001 36.7992 12.6075 36.8508 12.4146C36.8988 12.2154 36.8763 12.0353 36.7835 11.8745C36.672 11.6814 36.5194 11.5508 36.3256 11.4825C36.1317 11.4143 35.8898 11.4039 35.5997 11.4512C35.3059 11.4922 34.9608 11.5928 34.5644 11.753C34.1872 11.9021 33.837 12.0014 33.5138 12.0507C33.1868 12.0937 32.8868 12.0867 32.6138 12.0299C32.3435 11.9629 32.1002 11.846 31.8838 11.6793C31.6637 11.5061 31.4738 11.2811 31.314 11.0045C31.0726 10.5863 30.9726 10.1679 31.014 9.74931C31.0619 9.32704 31.2246 8.93283 31.5022 8.56667C31.7798 8.20051 32.1406 7.88927 32.5845 7.63295C33.0028 7.39149 33.426 7.23295 33.8541 7.15732C34.285 7.07154 34.6688 7.06016 35.0054 7.12316C35.2775 7.16342 35.4692 7.28006 35.5806 7.47309C35.6624 7.61464 35.682 7.7749 35.6394 7.95386C35.5969 8.13283 35.5017 8.26503 35.3537 8.35047C35.2572 8.40619 35.1536 8.42738 35.043 8.41405C34.888 8.38341 34.7014 8.37964 34.4831 8.40272C34.2611 8.41938 34.0387 8.45769 33.816 8.51766C33.5895 8.57119 33.3926 8.64625 33.2253 8.74284C32.9487 8.90257 32.7343 9.07355 32.5821 9.25577C32.4364 9.43427 32.3505 9.61251 32.3246 9.79048C32.2987 9.96844 32.3321 10.1379 32.425 10.2987C32.5365 10.4917 32.684 10.621 32.8677 10.6865C33.0541 10.7419 33.2757 10.7469 33.5326 10.7016C33.7858 10.6497 34.0771 10.5674 34.4065 10.4544C34.8334 10.3023 35.2195 10.1909 35.5648 10.1202C35.9165 10.0459 36.2334 10.0302 36.5156 10.0732C36.794 10.1097 37.0484 10.2159 37.2786 10.3918C37.5052 10.5613 37.7132 10.8101 37.9026 11.1382C38.1441 11.5565 38.2363 11.9836 38.1792 12.4198C38.1222 12.8559 37.9503 13.264 37.6636 13.644C37.3833 14.0203 37.0243 14.3348 36.5868 14.5874ZM37.5826 14.7074C37.6792 14.8746 37.7011 15.0464 37.6485 15.2227C37.606 15.4016 37.5011 15.5394 37.3338 15.636C37.1729 15.7288 37.0044 15.749 36.8281 15.6963C36.6556 15.6501 36.521 15.5433 36.4245 15.376L31.9445 7.61645C31.8479 7.44916 31.8227 7.27925 31.8689 7.10672C31.9179 6.92404 32.026 6.78441 32.1933 6.68782C32.3606 6.59124 32.5291 6.57114 32.6989 6.62752C32.8715 6.67375 33.006 6.78051 33.1026 6.94779L37.5826 14.7074Z" fill="#404040"/>
</svg>
