<svg width="92" height="34" viewBox="0 0 92 34" fill="none" xmlns="http://www.w3.org/2000/svg">
<path d="M57.0153 25C56.7026 25 56.4458 24.9051 56.2449 24.7153C56.0551 24.5143 55.9602 24.2687 55.9602 23.9784V14.2983C55.9602 14.0081 56.0551 13.768 56.2449 13.5782C56.4458 13.3772 56.6915 13.2767 56.9818 13.2767H62.4247C62.715 13.2767 62.955 13.3717 63.1448 13.5615C63.3458 13.7401 63.4463 13.9746 63.4463 14.2649C63.4463 14.5105 63.3458 14.7282 63.1448 14.918C62.955 15.1078 62.715 15.2027 62.4247 15.2027H57.9029L58.0536 15.0017V18.368L57.9364 18.1503H61.6711C61.9614 18.1503 62.2014 18.2452 62.3912 18.435C62.5922 18.6136 62.6927 18.8481 62.6927 19.1384C62.6927 19.384 62.5922 19.6017 62.3912 19.7915C62.2014 19.9813 61.9614 20.0762 61.6711 20.0762H57.9029L58.0536 19.9255V23.9784C58.0536 24.2687 57.9475 24.5143 57.7354 24.7153C57.5344 24.9051 57.2944 25 57.0153 25ZM67.0893 23.9784C67.0893 24.2687 66.9944 24.5143 66.8046 24.7153C66.6148 24.9051 66.3747 25 66.0844 25C65.7941 25 65.5541 24.9051 65.3643 24.7153C65.1745 24.5143 65.0796 24.2687 65.0796 23.9784V17.0617C65.0796 16.7714 65.1745 16.5313 65.3643 16.3415C65.5541 16.1406 65.7941 16.0401 66.0844 16.0401C66.3747 16.0401 66.6148 16.1406 66.8046 16.3415C66.9944 16.5313 67.0893 16.7714 67.0893 17.0617V23.9784ZM66.0677 14.9515C65.6881 14.9515 65.4201 14.8901 65.2638 14.7673C65.1075 14.6445 65.0293 14.4267 65.0293 14.1141V13.7959C65.0293 13.4721 65.1131 13.2544 65.2805 13.1428C65.4592 13.02 65.7271 12.9585 66.0844 12.9585C66.4752 12.9585 66.7487 13.02 66.905 13.1428C67.0614 13.2656 67.1395 13.4833 67.1395 13.7959V14.1141C67.1395 14.4379 67.0558 14.6612 66.8883 14.784C66.7208 14.8957 66.4473 14.9515 66.0677 14.9515ZM73.9445 15.8726C74.7707 15.8726 75.3959 16.0457 75.8202 16.3918C76.2556 16.7379 76.5515 17.2012 76.7078 17.7818C76.8753 18.3512 76.959 18.9876 76.959 19.691V23.9784C76.959 24.2687 76.8641 24.5143 76.6743 24.7153C76.4845 24.9051 76.2445 25 75.9542 25C75.6639 25 75.4239 24.9051 75.2341 24.7153C75.0442 24.5143 74.9493 24.2687 74.9493 23.9784V19.691C74.9493 19.3226 74.8991 18.9932 74.7986 18.7029C74.7093 18.4015 74.5418 18.1614 74.2962 17.9828C74.0506 17.8042 73.6989 17.7148 73.2411 17.7148C72.7945 17.7148 72.4149 17.8042 72.1023 17.9828C71.8008 18.1614 71.5663 18.4015 71.3989 18.7029C71.2426 18.9932 71.1644 19.3226 71.1644 19.691V23.9784C71.1644 24.2687 71.0695 24.5143 70.8797 24.7153C70.6899 24.9051 70.4498 25 70.1596 25C69.8693 25 69.6292 24.9051 69.4394 24.7153C69.2496 24.5143 69.1547 24.2687 69.1547 23.9784V17.0617C69.1547 16.7714 69.2496 16.5313 69.4394 16.3415C69.6292 16.1406 69.8693 16.0401 70.1596 16.0401C70.4498 16.0401 70.6899 16.1406 70.8797 16.3415C71.0695 16.5313 71.1644 16.7714 71.1644 17.0617V17.7818L70.9132 17.7316C71.0137 17.5418 71.1588 17.3408 71.3486 17.1287C71.5384 16.9054 71.7617 16.6988 72.0185 16.509C72.2753 16.3192 72.5656 16.1685 72.8894 16.0568C73.2132 15.934 73.5649 15.8726 73.9445 15.8726ZM79.2317 16.2076H83.2009C83.4688 16.2076 83.6921 16.2969 83.8708 16.4755C84.0494 16.6542 84.1387 16.8775 84.1387 17.1454C84.1387 17.4022 84.0494 17.6199 83.8708 17.7986C83.6921 17.966 83.4688 18.0498 83.2009 18.0498H79.2317C78.9638 18.0498 78.7405 17.9605 78.5618 17.7818C78.3832 17.6032 78.2939 17.3799 78.2939 17.1119C78.2939 16.8551 78.3832 16.643 78.5618 16.4755C78.7405 16.2969 78.9638 16.2076 79.2317 16.2076ZM81.0237 14.1141C81.314 14.1141 81.5485 14.2146 81.7271 14.4156C81.9169 14.6054 82.0118 14.8454 82.0118 15.1357V22.5884C82.0118 22.7447 82.0397 22.8731 82.0956 22.9736C82.1625 23.074 82.2463 23.1466 82.3468 23.1913C82.4584 23.2359 82.5756 23.2583 82.6985 23.2583C82.8324 23.2583 82.9553 23.2359 83.0669 23.1913C83.1786 23.1354 83.307 23.1075 83.4521 23.1075C83.6084 23.1075 83.748 23.1801 83.8708 23.3253C84.0048 23.4704 84.0718 23.6714 84.0718 23.9282C84.0718 24.2408 83.8987 24.4976 83.5526 24.6985C83.2176 24.8995 82.8548 25 82.464 25C82.2295 25 81.9672 24.9833 81.6769 24.9498C81.3977 24.9051 81.1298 24.8102 80.873 24.665C80.6274 24.5087 80.4208 24.2743 80.2533 23.9617C80.0859 23.649 80.0021 23.2192 80.0021 22.6721V15.1357C80.0021 14.8454 80.097 14.6054 80.2868 14.4156C80.4878 14.2146 80.7334 14.1141 81.0237 14.1141Z" fill="#575757"/>
<path d="M17.7688 24.2741C17.7688 29.1808 13.7911 33.1585 8.8844 33.1585C3.97768 33.1585 0 29.1808 0 24.2741C0 21.6871 1.1057 19.3584 2.87031 17.7347C4.4526 16.2787 6.56468 15.3897 8.8844 15.3897C13.7911 15.3897 17.7688 19.3674 17.7688 24.2741Z" fill="#96D68C"/>
<path d="M43.4098 24.2741C43.4098 29.1808 39.4321 33.1585 34.5254 33.1585C29.6187 33.1585 25.641 29.1808 25.641 24.2741C25.641 23.6473 25.7059 23.0357 25.8294 22.4456C26.6724 18.4161 30.2455 15.3897 34.5254 15.3897C39.4321 15.3897 43.4098 19.3674 43.4098 24.2741Z" fill="#96D68C"/>
<path d="M33.4324 13.653C33.4324 18.1245 30.1289 21.8245 25.8294 22.4456C25.411 22.5061 24.9831 22.5374 24.548 22.5374C20.2356 22.5374 16.6408 19.465 15.8332 15.3897C15.7219 14.828 15.6636 14.2473 15.6636 13.653C15.6636 12.8724 15.7642 12.1153 15.9533 11.394C16.9527 7.58132 20.4218 4.76855 24.548 4.76855C29.4547 4.76855 33.4324 8.74624 33.4324 13.653Z" fill="#96D68C"/>
<path d="M17.7688 24.2741C17.7688 29.1808 13.7911 33.1585 8.8844 33.1585H34.5254C29.6187 33.1585 25.641 29.1808 25.641 24.2741C25.641 23.6473 25.7059 23.0357 25.8294 22.4456C25.411 22.5061 24.9831 22.5374 24.548 22.5374C20.2356 22.5374 16.6408 19.465 15.8332 15.3897H10.0379H8.8844C13.7911 15.3897 17.7688 19.3674 17.7688 24.2741Z" fill="#96D68C"/>
<path d="M15.8332 15.3897C15.7219 14.828 15.6636 14.2473 15.6636 13.653C15.6636 12.8724 15.7642 12.1153 15.9533 11.394C15.2109 12.7259 12.9884 15.3897 10.0379 15.3897H15.8332Z" fill="#96D68C"/>
<circle cx="34.6672" cy="10.9485" r="8.01481" transform="rotate(-30 34.6672 10.9485)" fill="#FFC145"/>
<path d="M36.5868 14.5874C36.1364 14.8474 35.6995 15.0268 35.276 15.1254C34.8489 15.2176 34.3895 15.2169 33.8979 15.1232C33.7734 15.1008 33.6626 15.0575 33.5656 14.9934C33.4685 14.9293 33.394 14.8523 33.342 14.7622C33.2566 14.6142 33.2337 14.4558 33.2735 14.287C33.316 14.108 33.4177 13.9721 33.5786 13.8792C33.7008 13.8086 33.8325 13.7841 33.9736 13.8056C34.3332 13.8639 34.6618 13.8758 34.9593 13.8413C35.2632 13.8031 35.5922 13.6818 35.946 13.4775C36.1841 13.3401 36.3824 13.1784 36.541 12.9924C36.6959 12.8001 36.7992 12.6075 36.8508 12.4146C36.8988 12.2154 36.8763 12.0353 36.7835 11.8745C36.672 11.6814 36.5194 11.5508 36.3256 11.4825C36.1317 11.4143 35.8898 11.4039 35.5997 11.4512C35.3059 11.4922 34.9608 11.5928 34.5644 11.753C34.1872 11.9021 33.837 12.0014 33.5138 12.0507C33.1868 12.0937 32.8868 12.0867 32.6138 12.0299C32.3435 11.9629 32.1002 11.846 31.8838 11.6793C31.6637 11.5061 31.4738 11.2811 31.314 11.0045C31.0726 10.5863 30.9726 10.1679 31.014 9.74931C31.0619 9.32704 31.2246 8.93283 31.5022 8.56667C31.7798 8.20051 32.1406 7.88927 32.5845 7.63295C33.0028 7.39149 33.426 7.23295 33.8541 7.15732C34.285 7.07154 34.6688 7.06016 35.0054 7.12316C35.2775 7.16342 35.4692 7.28006 35.5806 7.47309C35.6624 7.61464 35.682 7.7749 35.6394 7.95386C35.5969 8.13283 35.5017 8.26503 35.3537 8.35047C35.2572 8.40619 35.1536 8.42738 35.043 8.41405C34.888 8.38341 34.7014 8.37964 34.4831 8.40272C34.2611 8.41938 34.0387 8.45769 33.816 8.51766C33.5895 8.57119 33.3926 8.64625 33.2253 8.74284C32.9487 8.90257 32.7343 9.07355 32.5821 9.25577C32.4364 9.43427 32.3505 9.61251 32.3246 9.79048C32.2987 9.96844 32.3321 10.1379 32.425 10.2987C32.5365 10.4917 32.684 10.621 32.8677 10.6865C33.0541 10.7419 33.2757 10.7469 33.5326 10.7016C33.7858 10.6497 34.0771 10.5674 34.4065 10.4544C34.8334 10.3023 35.2195 10.1909 35.5648 10.1202C35.9165 10.0459 36.2334 10.0302 36.5156 10.0732C36.794 10.1097 37.0484 10.2159 37.2786 10.3918C37.5052 10.5613 37.7132 10.8101 37.9026 11.1382C38.1441 11.5565 38.2363 11.9836 38.1792 12.4198C38.1222 12.8559 37.9503 13.264 37.6636 13.644C37.3833 14.0203 37.0243 14.3348 36.5868 14.5874ZM37.5826 14.7074C37.6792 14.8746 37.7011 15.0464 37.6485 15.2227C37.606 15.4016 37.5011 15.5394 37.3338 15.636C37.1729 15.7288 37.0044 15.749 36.8281 15.6963C36.6556 15.6501 36.521 15.5433 36.4245 15.376L31.9445 7.61645C31.8479 7.44916 31.8227 7.27925 31.8689 7.10672C31.9179 6.92404 32.026 6.78441 32.1933 6.68782C32.3606 6.59124 32.5291 6.57114 32.6989 6.62752C32.8715 6.67375 33.006 6.78051 33.1026 6.94779L37.5826 14.7074Z" fill="#404040"/>
</svg>
