<svg width="256" height="168" viewBox="0 0 256 168" fill="none" xmlns="http://www.w3.org/2000/svg">
<path d="M104.644 114.813C104.644 143.67 81.251 167.063 52.3946 167.063C23.5382 167.063 0.145508 143.67 0.145508 114.813C0.145508 99.5994 6.64815 85.904 17.0258 76.3552C26.3312 67.7928 38.7523 62.5644 52.3946 62.5644C81.251 62.5644 104.644 85.9571 104.644 114.813Z" fill="white" fill-opacity="0.12"/>
<path d="M104.644 114.813C104.644 143.67 81.251 167.063 52.3946 167.063H203.189C174.333 167.063 150.94 143.67 150.94 114.813C150.94 111.127 151.322 107.531 152.048 104.06C149.587 104.416 147.071 104.6 144.512 104.6C119.151 104.6 98.0102 86.5309 93.2607 62.5644H59.1782H52.3946C81.251 62.5644 104.644 85.9571 104.644 114.813Z" fill="white" fill-opacity="0.12"/>
<path d="M93.2607 62.5644C92.6061 59.2612 92.2628 55.8459 92.2628 52.3505C92.2628 47.7599 92.8548 43.3075 93.9667 39.0656C89.6006 46.8985 76.5303 62.5644 59.1782 62.5644H93.2607Z" fill="white" fill-opacity="0.12"/>
<path fill-rule="evenodd" clip-rule="evenodd" d="M203.189 167.063C232.046 167.063 255.438 143.67 255.438 114.813C255.438 85.9571 232.046 62.5644 203.189 62.5644C200.63 62.5644 198.114 62.7484 195.653 63.1038C191.2 84.3921 173.789 100.92 152.048 104.06C151.322 107.531 150.94 111.127 150.94 114.813C150.94 143.67 174.333 167.063 203.189 167.063Z" fill="white" fill-opacity="0.12"/>
<path d="M195.653 63.1038C191.2 84.3921 173.789 100.92 152.048 104.06C156.501 82.7719 173.912 66.2445 195.653 63.1038Z" fill="white" fill-opacity="0.12"/>
<path d="M196.761 52.3505C196.761 23.4942 173.368 0.10144 144.512 0.10144C120.246 0.10144 99.844 16.6433 93.9667 39.0656C92.8548 43.3075 92.2628 47.7599 92.2628 52.3505C92.2628 55.8459 92.6061 59.2612 93.2607 62.5644C98.0102 86.5309 119.151 104.6 144.512 104.6C147.071 104.6 149.587 104.416 152.048 104.06C156.501 82.7719 173.912 66.2445 195.653 63.1038C196.379 59.6335 196.761 56.0366 196.761 52.3505Z" fill="white" fill-opacity="0.12"/>
</svg>
