<svg width="106" height="65" viewBox="0 0 106 65" fill="none" xmlns="http://www.w3.org/2000/svg">
<path d="M45.7056 38.8313C45.0511 38.8313 44.5136 38.6327 44.0929 38.2353C43.6955 37.8146 43.4969 37.3004 43.4969 36.6927V16.4286C43.4969 15.8209 43.6955 15.3184 44.0929 14.9211C44.5136 14.5004 45.0278 14.29 45.6355 14.29H57.0296C57.6373 14.29 58.1398 14.4887 58.5372 14.886C58.9579 15.26 59.1682 15.7508 59.1682 16.3585C59.1682 16.8727 58.9579 17.3285 58.5372 17.7258C58.1398 18.1232 57.6373 18.3218 57.0296 18.3218H47.5637L47.8792 17.9011V24.948L47.6338 24.4922H55.452C56.0597 24.4922 56.5622 24.6909 56.9595 25.0882C57.3802 25.4622 57.5906 25.953 57.5906 26.5607C57.5906 27.0749 57.3802 27.5306 56.9595 27.928C56.5622 28.3253 56.0597 28.524 55.452 28.524H47.5637L47.8792 28.2085V36.6927C47.8792 37.3004 47.6572 37.8146 47.2131 38.2353C46.7924 38.6327 46.2899 38.8313 45.7056 38.8313ZM66.7944 36.6927C66.7944 37.3004 66.5957 37.8146 66.1984 38.2353C65.801 38.6327 65.2985 38.8313 64.6908 38.8313C64.0831 38.8313 63.5806 38.6327 63.1833 38.2353C62.786 37.8146 62.5873 37.3004 62.5873 36.6927V22.2134C62.5873 21.6057 62.786 21.1032 63.1833 20.7058C63.5806 20.2851 64.0831 20.0748 64.6908 20.0748C65.2985 20.0748 65.801 20.2851 66.1984 20.7058C66.5957 21.1032 66.7944 21.6057 66.7944 22.2134V36.6927ZM64.6558 17.7959C63.8611 17.7959 63.3002 17.6674 62.9729 17.4103C62.6457 17.1532 62.4821 16.6974 62.4821 16.043V15.3769C62.4821 14.6991 62.6574 14.2433 63.008 14.0096C63.382 13.7525 63.9429 13.6239 64.6908 13.6239C65.5089 13.6239 66.0815 13.7525 66.4087 14.0096C66.7359 14.2667 66.8996 14.7224 66.8996 15.3769V16.043C66.8996 16.7208 66.7243 17.1882 66.3737 17.4453C66.0231 17.6791 65.4504 17.7959 64.6558 17.7959ZM81.145 19.7242C82.8746 19.7242 84.1835 20.0865 85.0716 20.811C85.9831 21.5356 86.6025 22.5055 86.9297 23.7209C87.2803 24.9129 87.4556 26.2452 87.4556 27.7176V36.6927C87.4556 37.3004 87.257 37.8146 86.8596 38.2353C86.4623 38.6327 85.9598 38.8313 85.3521 38.8313C84.7444 38.8313 84.2419 38.6327 83.8446 38.2353C83.4472 37.8146 83.2485 37.3004 83.2485 36.6927V27.7176C83.2485 26.9463 83.1434 26.2568 82.933 25.6491C82.746 25.0181 82.3954 24.5156 81.8812 24.1416C81.367 23.7676 80.6308 23.5807 79.6725 23.5807C78.7376 23.5807 77.943 23.7676 77.2885 24.1416C76.6575 24.5156 76.1666 25.0181 75.816 25.6491C75.4888 26.2568 75.3252 26.9463 75.3252 27.7176V36.6927C75.3252 37.3004 75.1265 37.8146 74.7292 38.2353C74.3319 38.6327 73.8294 38.8313 73.2217 38.8313C72.614 38.8313 72.1115 38.6327 71.7141 38.2353C71.3168 37.8146 71.1181 37.3004 71.1181 36.6927V22.2134C71.1181 21.6057 71.3168 21.1032 71.7141 20.7058C72.1115 20.2851 72.614 20.0748 73.2217 20.0748C73.8294 20.0748 74.3319 20.2851 74.7292 20.7058C75.1265 21.1032 75.3252 21.6057 75.3252 22.2134V23.7209L74.7993 23.6157C75.0097 23.2184 75.3135 22.7977 75.7109 22.3536C76.1082 21.8862 76.5757 21.4538 77.1132 21.0564C77.6508 20.6591 78.2585 20.3436 78.9363 20.1098C79.6141 19.8527 80.3503 19.7242 81.145 19.7242ZM92.2132 20.4254H100.522C101.083 20.4254 101.551 20.6123 101.925 20.9863C102.299 21.3603 102.486 21.8277 102.486 22.3887C102.486 22.9262 102.299 23.382 101.925 23.756C101.551 24.1066 101.083 24.2818 100.522 24.2818H92.2132C91.6523 24.2818 91.1848 24.0949 90.8109 23.7209C90.4369 23.3469 90.2499 22.8795 90.2499 22.3185C90.2499 21.781 90.4369 21.3369 90.8109 20.9863C91.1848 20.6123 91.6523 20.4254 92.2132 20.4254ZM95.9646 16.043C96.5722 16.043 97.0631 16.2533 97.437 16.674C97.8344 17.0714 98.033 17.5739 98.033 18.1816V33.7828C98.033 34.1101 98.0915 34.3788 98.2083 34.5892C98.3486 34.7995 98.5239 34.9515 98.7342 35.045C98.9679 35.1384 99.2134 35.1852 99.4705 35.1852C99.7509 35.1852 100.008 35.1384 100.242 35.045C100.475 34.9281 100.744 34.8697 101.048 34.8697C101.375 34.8697 101.667 35.0216 101.925 35.3254C102.205 35.6293 102.345 36.05 102.345 36.5876C102.345 37.242 101.983 37.7796 101.258 38.2003C100.557 38.621 99.7977 38.8313 98.9796 38.8313C98.4888 38.8313 97.9395 38.7963 97.3319 38.7262C96.7475 38.6327 96.1866 38.434 95.649 38.1301C95.1348 37.8029 94.7024 37.3121 94.3518 36.6577C94.0012 36.0032 93.826 35.1034 93.826 33.9581V18.1816C93.826 17.5739 94.0246 17.0714 94.422 16.674C94.8427 16.2533 95.3569 16.043 95.9646 16.043Z" fill="white"/>
<path d="M16.0323 58.7798C16.1387 58.7798 16.233 58.8209 16.3152 58.9031L17.084 59.7372C16.6585 60.2642 16.1339 60.668 15.5101 60.9484C14.8912 61.2288 14.1466 61.3691 13.2763 61.3691C12.4978 61.3691 11.7967 61.2361 11.173 60.9702C10.5541 60.7042 10.0246 60.3343 9.58464 59.8605C9.14464 59.3866 8.80618 58.8209 8.56925 58.1633C8.33717 57.5058 8.22112 56.7877 8.22112 56.0093C8.22112 55.2211 8.34684 54.5007 8.59826 53.848C8.84969 53.1904 9.20266 52.6247 9.65717 52.1508C10.1165 51.677 10.6629 51.3095 11.2963 51.0484C11.9297 50.7825 12.6308 50.6495 13.3996 50.6495C14.1635 50.6495 14.8405 50.7752 15.4304 51.0266C16.0251 51.2781 16.5304 51.6069 16.9462 52.013L16.2934 52.9196C16.2548 52.9776 16.204 53.0284 16.1411 53.0719C16.0831 53.1154 16.0009 53.1372 15.8945 53.1372C15.822 53.1372 15.7471 53.1178 15.6697 53.0792C15.5923 53.0356 15.5077 52.9849 15.4159 52.9269C15.324 52.864 15.2176 52.7963 15.0967 52.7238C14.9759 52.6513 14.8356 52.586 14.6761 52.528C14.5165 52.4651 14.3304 52.4143 14.1176 52.3756C13.9097 52.3321 13.6679 52.3104 13.3923 52.3104C12.9233 52.3104 12.493 52.395 12.1013 52.5642C11.7145 52.7286 11.3809 52.9704 11.1005 53.2895C10.82 53.6038 10.6024 53.9906 10.4477 54.4499C10.293 54.9044 10.2156 55.4242 10.2156 56.0093C10.2156 56.5992 10.2978 57.1238 10.4622 57.5831C10.6315 58.0425 10.8587 58.4293 11.144 58.7436C11.4293 59.0579 11.7653 59.2996 12.1521 59.4688C12.5389 59.6332 12.9548 59.7154 13.3996 59.7154C13.6655 59.7154 13.9049 59.7009 14.1176 59.6719C14.3352 59.6429 14.5334 59.597 14.7123 59.5341C14.8961 59.4713 15.0677 59.3915 15.2273 59.2948C15.3917 59.1932 15.5537 59.0699 15.7132 58.9249C15.7616 58.8814 15.8123 58.8475 15.8655 58.8233C15.9187 58.7943 15.9743 58.7798 16.0323 58.7798ZM22.0686 58.0763C21.5512 58.1005 21.116 58.1464 20.7631 58.2141C20.4101 58.277 20.1272 58.3592 19.9145 58.4607C19.7017 58.5622 19.5494 58.6807 19.4576 58.8161C19.3657 58.9515 19.3198 59.099 19.3198 59.2585C19.3198 59.5728 19.4116 59.7976 19.5954 59.933C19.7839 60.0684 20.0281 60.1361 20.3279 60.1361C20.6954 60.1361 21.0121 60.0708 21.278 59.9403C21.5488 59.8049 21.8123 59.6018 22.0686 59.331V58.0763ZM17.9635 54.8488C18.8193 54.0655 19.8492 53.6739 21.0532 53.6739C21.4883 53.6739 21.8776 53.7464 22.2209 53.8915C22.5642 54.0317 22.8543 54.2299 23.0912 54.4862C23.3281 54.7376 23.507 55.0398 23.6279 55.3928C23.7536 55.7458 23.8165 56.1326 23.8165 56.5532V61.253H23.0042C22.8349 61.253 22.7044 61.2288 22.6125 61.1805C22.5206 61.1273 22.4481 61.0234 22.3949 60.8686L22.2354 60.3319C22.0468 60.5012 21.8631 60.651 21.6842 60.7816C21.5053 60.9073 21.3191 61.0137 21.1257 61.1007C20.9323 61.1877 20.7244 61.253 20.502 61.2965C20.2844 61.3449 20.0426 61.3691 19.7767 61.3691C19.4624 61.3691 19.1723 61.328 18.9064 61.2458C18.6404 61.1587 18.4108 61.0306 18.2173 60.8614C18.0239 60.6921 17.874 60.4818 17.7677 60.2304C17.6613 59.979 17.6081 59.6864 17.6081 59.3528C17.6081 59.1642 17.6395 58.9781 17.7024 58.7943C17.7653 58.6058 17.8668 58.4269 18.007 58.2576C18.1521 58.0884 18.3382 57.9288 18.5655 57.779C18.7927 57.6291 19.0708 57.4985 19.3995 57.3873C19.7332 57.2761 20.12 57.1866 20.56 57.1189C21 57.0464 21.5028 57.0029 22.0686 56.9884V56.5532C22.0686 56.0552 21.9622 55.6877 21.7494 55.4508C21.5367 55.2091 21.2297 55.0882 20.8283 55.0882C20.5382 55.0882 20.2965 55.122 20.1031 55.1897C19.9145 55.2574 19.7477 55.3348 19.6026 55.4218C19.4576 55.504 19.3246 55.5789 19.2037 55.6466C19.0877 55.7143 18.9571 55.7482 18.8121 55.7482C18.6864 55.7482 18.58 55.7168 18.493 55.6539C18.4059 55.5862 18.3358 55.5088 18.2826 55.4218L17.9635 54.8488ZM27.1935 55.1027C27.4256 54.6578 27.7012 54.3097 28.0204 54.0583C28.3395 53.802 28.7166 53.6739 29.1518 53.6739C29.4951 53.6739 29.7707 53.7488 29.9786 53.8987L29.8626 55.2405C29.8384 55.3275 29.8021 55.3904 29.7538 55.4291C29.7102 55.4629 29.6498 55.4798 29.5724 55.4798C29.4999 55.4798 29.3911 55.4677 29.2461 55.4436C29.1058 55.4194 28.968 55.4073 28.8327 55.4073C28.6344 55.4073 28.4579 55.4363 28.3032 55.4943C28.1485 55.5524 28.0083 55.637 27.8826 55.7482C27.7617 55.8546 27.6529 55.9851 27.5562 56.1398C27.4643 56.2946 27.3773 56.471 27.2951 56.6693V61.253H25.5036V53.8117H26.5553C26.739 53.8117 26.8672 53.8455 26.9397 53.9132C27.0122 53.9761 27.0606 54.0921 27.0847 54.2614L27.1935 55.1027ZM33.3953 61.3691C32.7474 61.3691 32.2494 61.1877 31.9013 60.8251C31.558 60.4576 31.3863 59.9524 31.3863 59.3093V55.1535H30.6248C30.5281 55.1535 30.4459 55.122 30.3782 55.0592C30.3105 54.9963 30.2766 54.902 30.2766 54.7763V54.0655L31.4733 53.8697L31.8505 51.8389C31.8747 51.7422 31.9206 51.6673 31.9883 51.6141C32.056 51.5609 32.143 51.5343 32.2494 51.5343H33.1777V53.877H35.165V55.1535H33.1777V59.186C33.1777 59.4181 33.2333 59.5994 33.3446 59.7299C33.4606 59.8605 33.6177 59.9258 33.816 59.9258C33.9272 59.9258 34.0191 59.9137 34.0916 59.8895C34.169 59.8605 34.2342 59.8315 34.2874 59.8025C34.3454 59.7735 34.3962 59.7469 34.4397 59.7227C34.4832 59.6937 34.5268 59.6792 34.5703 59.6792C34.6235 59.6792 34.667 59.6937 34.7008 59.7227C34.7347 59.7469 34.7709 59.7855 34.8096 59.8387L35.3463 60.7091C35.0852 60.9266 34.7854 61.091 34.447 61.2023C34.1085 61.3135 33.758 61.3691 33.3953 61.3691ZM41.0494 56.6765C41.0494 56.4444 41.0155 56.2269 40.9478 56.0238C40.885 55.8159 40.7883 55.6346 40.6577 55.4798C40.5272 55.3251 40.3604 55.2042 40.1573 55.1172C39.959 55.0253 39.7269 54.9794 39.461 54.9794C38.9436 54.9794 38.5351 55.1269 38.2353 55.4218C37.9403 55.7168 37.7518 56.135 37.6696 56.6765H41.0494ZM37.6333 57.7572C37.6623 58.1392 37.73 58.4704 37.8364 58.7508C37.9428 59.0264 38.083 59.2561 38.2571 59.4398C38.4311 59.6187 38.6366 59.7541 38.8735 59.846C39.1153 59.933 39.3812 59.9765 39.6713 59.9765C39.9615 59.9765 40.2105 59.9427 40.4184 59.875C40.6311 59.8073 40.8149 59.7324 40.9696 59.6502C41.1291 59.568 41.2669 59.493 41.383 59.4253C41.5039 59.3576 41.6199 59.3238 41.7311 59.3238C41.881 59.3238 41.9922 59.3794 42.0647 59.4906L42.5797 60.1433C42.3815 60.3754 42.159 60.5713 41.9124 60.7308C41.6658 60.8855 41.4072 61.0113 41.1364 61.108C40.8705 61.1998 40.5973 61.2651 40.3168 61.3038C40.0412 61.3425 39.7729 61.3618 39.5118 61.3618C38.9944 61.3618 38.5133 61.2772 38.0685 61.108C37.6236 60.9339 37.2368 60.6801 36.908 60.3464C36.5792 60.008 36.3206 59.5921 36.132 59.099C35.9434 58.6009 35.8491 58.0255 35.8491 57.3728C35.8491 56.8651 35.9313 56.3888 36.0957 55.944C36.2601 55.4943 36.4946 55.1051 36.7992 54.7763C37.1087 54.4427 37.4834 54.1792 37.9234 53.9858C38.3683 53.7924 38.8687 53.6956 39.4247 53.6956C39.8938 53.6956 40.3265 53.7706 40.723 53.9205C41.1195 54.0704 41.4604 54.2904 41.7456 54.5805C42.0309 54.8658 42.2533 55.2187 42.4129 55.6394C42.5773 56.0552 42.6595 56.5315 42.6595 57.0682C42.6595 57.339 42.6305 57.5227 42.5724 57.6194C42.5144 57.7113 42.4032 57.7572 42.2388 57.7572H37.6333ZM45.8605 53.8117V61.253H44.0619V53.8117H45.8605ZM46.1071 51.6431C46.1071 51.7978 46.0757 51.9429 46.0129 52.0783C45.95 52.2137 45.8654 52.3321 45.759 52.4337C45.6575 52.5352 45.5366 52.6174 45.3964 52.6803C45.2562 52.7383 45.1063 52.7673 44.9467 52.7673C44.792 52.7673 44.6445 52.7383 44.5043 52.6803C44.3689 52.6174 44.2504 52.5352 44.1489 52.4337C44.0474 52.3321 43.9652 52.2137 43.9023 52.0783C43.8443 51.9429 43.8153 51.7978 43.8153 51.6431C43.8153 51.4836 43.8443 51.3337 43.9023 51.1934C43.9652 51.0532 44.0474 50.9323 44.1489 50.8308C44.2504 50.7293 44.3689 50.6495 44.5043 50.5915C44.6445 50.5286 44.792 50.4972 44.9467 50.4972C45.1063 50.4972 45.2562 50.5286 45.3964 50.5915C45.5366 50.6495 45.6575 50.7293 45.759 50.8308C45.8654 50.9323 45.95 51.0532 46.0129 51.1934C46.0757 51.3337 46.1071 51.4836 46.1071 51.6431ZM49.3768 55.1027C49.6089 54.6578 49.8845 54.3097 50.2036 54.0583C50.5227 53.802 50.8999 53.6739 51.335 53.6739C51.6783 53.6739 51.9539 53.7488 52.1618 53.8987L52.0458 55.2405C52.0216 55.3275 51.9854 55.3904 51.937 55.4291C51.8935 55.4629 51.833 55.4798 51.7557 55.4798C51.6832 55.4798 51.5744 55.4677 51.4293 55.4436C51.2891 55.4194 51.1513 55.4073 51.0159 55.4073C50.8177 55.4073 50.6412 55.4363 50.4864 55.4943C50.3317 55.5524 50.1915 55.637 50.0658 55.7482C49.9449 55.8546 49.8361 55.9851 49.7394 56.1398C49.6475 56.2946 49.5605 56.471 49.4783 56.6693V61.253H47.6869V53.8117H48.7385C48.9223 53.8117 49.0504 53.8455 49.1229 53.9132C49.1955 53.9761 49.2438 54.0921 49.268 54.2614L49.3768 55.1027ZM56.93 58.0763C56.4126 58.1005 55.9774 58.1464 55.6245 58.2141C55.2715 58.277 54.9886 58.3592 54.7759 58.4607C54.5631 58.5622 54.4108 58.6807 54.319 58.8161C54.2271 58.9515 54.1812 59.099 54.1812 59.2585C54.1812 59.5728 54.273 59.7976 54.4568 59.933C54.6453 60.0684 54.8895 60.1361 55.1893 60.1361C55.5568 60.1361 55.8735 60.0708 56.1394 59.9403C56.4102 59.8049 56.6737 59.6018 56.93 59.331V58.0763ZM52.8249 54.8488C53.6807 54.0655 54.7106 53.6739 55.9146 53.6739C56.3497 53.6739 56.739 53.7464 57.0823 53.8915C57.4256 54.0317 57.7157 54.2299 57.9526 54.4862C58.1895 54.7376 58.3684 55.0398 58.4893 55.3928C58.615 55.7458 58.6779 56.1326 58.6779 56.5532V61.253H57.8656C57.6963 61.253 57.5658 61.2288 57.4739 61.1805C57.382 61.1273 57.3095 61.0234 57.2563 60.8686L57.0968 60.3319C56.9082 60.5012 56.7245 60.651 56.5456 60.7816C56.3667 60.9073 56.1805 61.0137 55.9871 61.1007C55.7937 61.1877 55.5858 61.253 55.3634 61.2965C55.1458 61.3449 54.904 61.3691 54.6381 61.3691C54.3238 61.3691 54.0337 61.328 53.7678 61.2458C53.5018 61.1587 53.2721 61.0306 53.0787 60.8614C52.8853 60.6921 52.7354 60.4818 52.6291 60.2304C52.5227 59.979 52.4695 59.6864 52.4695 59.3528C52.4695 59.1642 52.5009 58.9781 52.5638 58.7943C52.6267 58.6058 52.7282 58.4269 52.8684 58.2576C53.0135 58.0884 53.1996 57.9288 53.4269 57.779C53.6541 57.6291 53.9321 57.4985 54.2609 57.3873C54.5946 57.2761 54.9814 57.1866 55.4214 57.1189C55.8614 57.0464 56.3642 57.0029 56.93 56.9884V56.5532C56.93 56.0552 56.8236 55.6877 56.6108 55.4508C56.3981 55.2091 56.0911 55.0882 55.6897 55.0882C55.3996 55.0882 55.1579 55.122 54.9645 55.1897C54.7759 55.2574 54.6091 55.3348 54.464 55.4218C54.319 55.504 54.186 55.5789 54.0651 55.6466C53.9491 55.7143 53.8185 55.7482 53.6735 55.7482C53.5478 55.7482 53.4414 55.7168 53.3543 55.6539C53.2673 55.5862 53.1972 55.5088 53.144 55.4218L52.8249 54.8488ZM73.4877 56.0093C73.4877 56.7781 73.3595 57.484 73.1033 58.1271C72.847 58.7702 72.4868 59.3238 72.0226 59.788C71.5584 60.2521 71 60.6124 70.3472 60.8686C69.6945 61.1249 68.9692 61.253 68.1714 61.253H64.1751V50.7655H68.1714C68.9692 50.7655 69.6945 50.8961 70.3472 51.1572C71 51.4134 71.5584 51.7737 72.0226 52.2378C72.4868 52.6972 72.847 53.2484 73.1033 53.8915C73.3595 54.5346 73.4877 55.2405 73.4877 56.0093ZM71.4859 56.0093C71.4859 55.4339 71.4085 54.9189 71.2538 54.4644C71.1039 54.0051 70.8839 53.6183 70.5938 53.304C70.3085 52.9849 69.9604 52.7407 69.5494 52.5715C69.1433 52.4022 68.6839 52.3176 68.1714 52.3176H66.1334V59.7009H68.1714C68.6839 59.7009 69.1433 59.6163 69.5494 59.4471C69.9604 59.2779 70.3085 59.0361 70.5938 58.7218C70.8839 58.4027 71.1039 58.0159 71.2538 57.5614C71.4085 57.102 71.4859 56.5847 71.4859 56.0093ZM76.6564 53.8117V61.253H74.8577V53.8117H76.6564ZM76.903 51.6431C76.903 51.7978 76.8716 51.9429 76.8087 52.0783C76.7459 52.2137 76.6613 52.3321 76.5549 52.4337C76.4534 52.5352 76.3325 52.6174 76.1923 52.6803C76.052 52.7383 75.9021 52.7673 75.7426 52.7673C75.5879 52.7673 75.4404 52.7383 75.3002 52.6803C75.1648 52.6174 75.0463 52.5352 74.9448 52.4337C74.8432 52.3321 74.761 52.2137 74.6982 52.0783C74.6402 51.9429 74.6112 51.7978 74.6112 51.6431C74.6112 51.4836 74.6402 51.3337 74.6982 51.1934C74.761 51.0532 74.8432 50.9323 74.9448 50.8308C75.0463 50.7293 75.1648 50.6495 75.3002 50.5915C75.4404 50.5286 75.5879 50.4972 75.7426 50.4972C75.9021 50.4972 76.052 50.5286 76.1923 50.5915C76.3325 50.6495 76.4534 50.7293 76.5549 50.8308C76.6613 50.9323 76.7459 51.0532 76.8087 51.1934C76.8716 51.3337 76.903 51.4836 76.903 51.6431ZM81.2026 57.351C81.425 57.351 81.6184 57.322 81.7828 57.264C81.9472 57.2011 82.0826 57.1165 82.1889 57.0102C82.3001 56.9038 82.3823 56.7757 82.4355 56.6258C82.4935 56.4759 82.5226 56.3115 82.5226 56.1326C82.5226 55.7651 82.4113 55.475 82.1889 55.2622C81.9713 55.0447 81.6426 54.9359 81.2026 54.9359C80.7626 54.9359 80.4313 55.0447 80.2089 55.2622C79.9913 55.475 79.8825 55.7651 79.8825 56.1326C79.8825 56.3066 79.9091 56.4686 79.9623 56.6185C80.0204 56.7684 80.1025 56.8989 80.2089 57.0102C80.3201 57.1165 80.4579 57.2011 80.6223 57.264C80.7916 57.322 80.985 57.351 81.2026 57.351ZM83.2261 61.5866C83.2261 61.4416 83.1826 61.3231 83.0955 61.2313C83.0085 61.1394 82.89 61.0693 82.7401 61.0209C82.5902 60.9677 82.4138 60.9291 82.2107 60.9049C82.0124 60.8807 81.7997 60.8638 81.5724 60.8541C81.35 60.8396 81.1179 60.8275 80.8762 60.8179C80.6393 60.8082 80.4072 60.7888 80.1799 60.7598C79.9817 60.871 79.8197 61.0016 79.694 61.1515C79.5731 61.3014 79.5127 61.4754 79.5127 61.6737C79.5127 61.8042 79.5441 61.9251 79.6069 62.0363C79.6746 62.1524 79.7786 62.2515 79.9188 62.3337C80.0639 62.4159 80.25 62.4787 80.4773 62.5223C80.7045 62.5706 80.9826 62.5948 81.3113 62.5948C81.645 62.5948 81.9327 62.5682 82.1744 62.515C82.4162 62.4666 82.6144 62.3965 82.7691 62.3047C82.9287 62.2176 83.0448 62.1113 83.1173 61.9855C83.1898 61.8647 83.2261 61.7317 83.2261 61.5866ZM85.0102 54.0655V54.7328C85.0102 54.9455 84.8821 55.0761 84.6259 55.1244L83.9586 55.2477C84.0601 55.504 84.1109 55.7844 84.1109 56.0891C84.1109 56.4565 84.036 56.7902 83.8861 57.0899C83.741 57.3849 83.5379 57.6363 83.2768 57.8442C83.0157 58.0521 82.7063 58.2141 82.3485 58.3302C81.9955 58.4414 81.6135 58.497 81.2026 58.497C81.0575 58.497 80.9173 58.4897 80.7819 58.4752C80.6465 58.4607 80.5135 58.4414 80.383 58.4172C80.1509 58.5574 80.0349 58.7146 80.0349 58.8886C80.0349 59.0385 80.1025 59.1497 80.2379 59.2222C80.3782 59.2899 80.5619 59.3383 80.7891 59.3673C81.0164 59.3963 81.2751 59.4157 81.5652 59.4253C81.8553 59.4302 82.1527 59.4447 82.4573 59.4688C82.7619 59.493 83.0593 59.5365 83.3494 59.5994C83.6395 59.6574 83.8982 59.7517 84.1254 59.8823C84.3527 60.0128 84.534 60.1917 84.6694 60.419C84.8096 60.6414 84.8797 60.9291 84.8797 61.282C84.8797 61.6108 84.7975 61.9299 84.6331 62.2394C84.4735 62.5488 84.239 62.8245 83.9296 63.0662C83.625 63.308 83.2478 63.5014 82.7982 63.6464C82.3533 63.7963 81.8456 63.8713 81.2751 63.8713C80.7142 63.8713 80.2258 63.8157 79.81 63.7045C79.3942 63.5981 79.0485 63.453 78.7729 63.2693C78.4973 63.0904 78.2918 62.8825 78.1564 62.6456C78.021 62.4086 77.9533 62.162 77.9533 61.9058C77.9533 61.5576 78.0573 61.2675 78.2652 61.0354C78.4779 60.7985 78.768 60.6099 79.1355 60.4697C78.9373 60.3682 78.7801 60.2328 78.6641 60.0636C78.548 59.8943 78.49 59.6719 78.49 59.3963C78.49 59.2851 78.5094 59.1715 78.548 59.0554C78.5916 58.9346 78.652 58.8161 78.7294 58.7001C78.8116 58.584 78.9131 58.4752 79.034 58.3737C79.1549 58.2673 79.2975 58.173 79.4619 58.0908C79.0847 57.8877 78.7874 57.617 78.5698 57.2785C78.3571 56.94 78.2507 56.5436 78.2507 56.0891C78.2507 55.7216 78.3232 55.3904 78.4683 55.0954C78.6182 54.7956 78.8236 54.5418 79.0847 54.3339C79.3507 54.1211 79.6625 53.9592 80.0204 53.848C80.383 53.7367 80.7771 53.6811 81.2026 53.6811C81.5217 53.6811 81.8215 53.715 82.1019 53.7827C82.3823 53.8455 82.6386 53.9398 82.8707 54.0655H85.0102ZM88.003 53.8117V61.253H86.2043V53.8117H88.003ZM88.2496 51.6431C88.2496 51.7978 88.2182 51.9429 88.1553 52.0783C88.0925 52.2137 88.0079 52.3321 87.9015 52.4337C87.8 52.5352 87.6791 52.6174 87.5389 52.6803C87.3986 52.7383 87.2487 52.7673 87.0892 52.7673C86.9345 52.7673 86.787 52.7383 86.6468 52.6803C86.5114 52.6174 86.3929 52.5352 86.2914 52.4337C86.1898 52.3321 86.1076 52.2137 86.0448 52.0783C85.9868 51.9429 85.9578 51.7978 85.9578 51.6431C85.9578 51.4836 85.9868 51.3337 86.0448 51.1934C86.1076 51.0532 86.1898 50.9323 86.2914 50.8308C86.3929 50.7293 86.5114 50.6495 86.6468 50.5915C86.787 50.5286 86.9345 50.4972 87.0892 50.4972C87.2487 50.4972 87.3986 50.5286 87.5389 50.5915C87.6791 50.6495 87.8 50.7293 87.9015 50.8308C88.0079 50.9323 88.0925 51.0532 88.1553 51.1934C88.2182 51.3337 88.2496 51.4836 88.2496 51.6431ZM92.3098 61.3691C91.6619 61.3691 91.1639 61.1877 90.8157 60.8251C90.4724 60.4576 90.3008 59.9524 90.3008 59.3093V55.1535H89.5393C89.4425 55.1535 89.3604 55.122 89.2927 55.0592C89.225 54.9963 89.1911 54.902 89.1911 54.7763V54.0655L90.3878 53.8697L90.765 51.8389C90.7891 51.7422 90.8351 51.6673 90.9028 51.6141C90.9705 51.5609 91.0575 51.5343 91.1639 51.5343H92.0922V53.877H94.0795V55.1535H92.0922V59.186C92.0922 59.4181 92.1478 59.5994 92.259 59.7299C92.3751 59.8605 92.5322 59.9258 92.7305 59.9258C92.8417 59.9258 92.9335 59.9137 93.0061 59.8895C93.0834 59.8605 93.1487 59.8315 93.2019 59.8025C93.2599 59.7735 93.3107 59.7469 93.3542 59.7227C93.3977 59.6937 93.4412 59.6792 93.4848 59.6792C93.5379 59.6792 93.5815 59.6937 93.6153 59.7227C93.6491 59.7469 93.6854 59.7855 93.7241 59.8387L94.2608 60.7091C93.9997 60.9266 93.6999 61.091 93.3615 61.2023C93.023 61.3135 92.6724 61.3691 92.3098 61.3691ZM99.1574 58.0763C98.6401 58.1005 98.2049 58.1464 97.8519 58.2141C97.499 58.277 97.2161 58.3592 97.0034 58.4607C96.7906 58.5622 96.6383 58.6807 96.5464 58.8161C96.4546 58.9515 96.4086 59.099 96.4086 59.2585C96.4086 59.5728 96.5005 59.7976 96.6842 59.933C96.8728 60.0684 97.117 60.1361 97.4168 60.1361C97.7842 60.1361 98.1009 60.0708 98.3669 59.9403C98.6376 59.8049 98.9012 59.6018 99.1574 59.331V58.0763ZM95.0524 54.8488C95.9082 54.0655 96.9381 53.6739 98.142 53.6739C98.5772 53.6739 98.9664 53.7464 99.3097 53.8915C99.653 54.0317 99.9431 54.2299 100.18 54.4862C100.417 54.7376 100.596 55.0398 100.717 55.3928C100.842 55.7458 100.905 56.1326 100.905 56.5532V61.253H100.093C99.9238 61.253 99.7933 61.2288 99.7014 61.1805C99.6095 61.1273 99.537 61.0234 99.4838 60.8686L99.3242 60.3319C99.1357 60.5012 98.9519 60.651 98.773 60.7816C98.5941 60.9073 98.408 61.0137 98.2146 61.1007C98.0212 61.1877 97.8133 61.253 97.5908 61.2965C97.3733 61.3449 97.1315 61.3691 96.8656 61.3691C96.5513 61.3691 96.2612 61.328 95.9952 61.2458C95.7293 61.1587 95.4996 61.0306 95.3062 60.8614C95.1128 60.6921 94.9629 60.4818 94.8565 60.2304C94.7502 59.979 94.697 59.6864 94.697 59.3528C94.697 59.1642 94.7284 58.9781 94.7913 58.7943C94.8541 58.6058 94.9557 58.4269 95.0959 58.2576C95.2409 58.0884 95.4271 57.9288 95.6543 57.779C95.8816 57.6291 96.1596 57.4985 96.4884 57.3873C96.822 57.2761 97.2089 57.1866 97.6489 57.1189C98.0889 57.0464 98.5917 57.0029 99.1574 56.9884V56.5532C99.1574 56.0552 99.0511 55.6877 98.8383 55.4508C98.6256 55.2091 98.3185 55.0882 97.9172 55.0882C97.6271 55.0882 97.3853 55.122 97.1919 55.1897C97.0034 55.2574 96.8365 55.3348 96.6915 55.4218C96.5464 55.504 96.4135 55.5789 96.2926 55.6466C96.1765 55.7143 96.046 55.7482 95.9009 55.7482C95.7752 55.7482 95.6689 55.7168 95.5818 55.6539C95.4948 55.5862 95.4247 55.5088 95.3715 55.4218L95.0524 54.8488ZM104.406 50.4754V61.253H102.614V50.4754H104.406Z" fill="white" fill-opacity="0.39"/>
<path d="M16.6248 10.6671C18.6827 6.37446 24.7943 6.37446 26.8522 10.6671L36.6708 31.1487C38.4754 34.9131 35.7317 39.2711 31.5572 39.2711H11.9198C7.74529 39.2711 5.00158 34.9131 6.80617 31.1487L16.6248 10.6671Z" fill="#EDF0E8"/>
</svg>
